<svg xmlns="http://www.w3.org/2000/svg" xmlns:xlink="http://www.w3.org/1999/xlink" viewBox="0 0 1200 72" width="1200" height="72" role="img" aria-label="ABOUT ME"><title>ABOUT ME</title><defs><filter id="glow" x="-10%" y="-40%" width="120%" height="180%"><feGaussianBlur stdDeviation="2.6" result="b"/><feMerge><feMergeNode in="b"/><feMergeNode in="SourceGraphic"/></feMerge></filter><pattern id="scan" width="4" height="4" patternUnits="userSpaceOnUse"><rect width="4" height="1" fill="#000" opacity=".28"/></pattern><linearGradient id="edge" x1="0" y1="0" x2="1" y2="0"><stop offset="0" stop-color="#00f0ff"/><stop offset=".5" stop-color="#ff2bd6"/><stop offset="1" stop-color="#00f0ff"/></linearGradient>
<linearGradient id="pl" x1="0" y1="0" x2="1" y2="0"><stop offset="0" stop-color="#00f0ff" stop-opacity="0"/>
<stop offset=".5" stop-color="#fff"/><stop offset="1" stop-color="#00f0ff" stop-opacity="0"/></linearGradient>
<linearGradient id="bgg" x1="0" y1="0" x2="1" y2="0"><stop offset="0" stop-color="#160a4a"/><stop offset="1" stop-color="#0a0424"/></linearGradient>
<clipPath id="rc"><rect x="0" y="0" width="1200" height="72" rx="8"/></clipPath>
<path id="tt" d="M12 -23.9 9.3 -12H14.8ZM8.5 -29.2H15.6L23.4 0H17.7L15.9 -7.2H8.2L6.4 0H0.6Z M36.1 -13.2V-4.6H39.9Q42.7 -4.6 43.8 -5.5Q44.9 -6.5 44.9 -8.8Q44.9 -11.2 43.7 -12.2Q42.6 -13.2 39.9 -13.2ZM36.1 -24.6V-17.8H39.9Q42.1 -17.8 43 -18.6Q44 -19.4 44 -21.2Q44 -23 43 -23.8Q42.1 -24.6 39.9 -24.6ZM30.5 -29.2H39.9Q44.8 -29.2 47.2 -27.4Q49.7 -25.5 49.7 -21.8Q49.7 -19 48.2 -17.4Q46.8 -15.9 44 -15.6Q47.3 -15.3 49 -13.4Q50.7 -11.4 50.7 -8Q50.7 -3.8 48.2 -1.9Q45.6 0 39.9 0H30.5Z M68.2 -24.5Q66 -24.5 65 -22.2Q64 -19.8 64 -14.6Q64 -9.3 65 -7Q66 -4.6 68.2 -4.6Q70.4 -4.6 71.4 -7Q72.5 -9.3 72.5 -14.6Q72.5 -19.8 71.4 -22.2Q70.4 -24.5 68.2 -24.5ZM58 -14.6Q58 -22 60.5 -25.9Q63.1 -29.7 68.2 -29.7Q73.3 -29.7 75.9 -25.9Q78.4 -22 78.4 -14.6Q78.4 -7.1 75.9 -3.3Q73.3 0.6 68.2 0.6Q63.1 0.6 60.5 -3.3Q58 -7.1 58 -14.6Z M86.3 -10.8V-29.2H92.1V-9.3Q92.1 -7.1 93.2 -5.9Q94.3 -4.6 96.3 -4.6Q98.2 -4.6 99.4 -5.9Q100.5 -7.1 100.5 -9.3V-29.2H106.2V-10.8Q106.2 -4.8 103.9 -2.1Q101.5 0.6 96.3 0.6Q91.1 0.6 88.7 -2.1Q86.3 -4.8 86.3 -10.8Z M127.2 0H121.5V-24.1H114.1V-29.2H134.7V-24.1H127.2Z M170.2 -29.2H177L180.5 -16.4L184 -29.2H190.9V0H185.9V-23.4L182.8 -10.6H178.3L175.1 -23.4V0H170.2Z M218 0H199.9V-29.2H218V-24.1H205.6V-17.8H216.8V-12.7H205.6V-5.1H218Z"/></defs><g clip-path="url(#rc)">
<rect width="1200" height="72" fill="url(#bgg)"/>
<rect width="1200" height="72" fill="url(#scan)"/>
<rect x="0" y="0" width="10" height="72" fill="#ff2bd6" filter="url(#glow)"/>
<rect x="10" y="0" width="3" height="72" fill="#00f0ff" opacity=".7"/>
<path d="M4.5 -15.2H8.7V-13.8H6.3V1.2H8.7V2.6H4.5Z M18.8 -7.3Q18.8 -7.9 19.1 -8.3Q19.5 -8.6 20 -8.6Q20.6 -8.6 21 -8.3Q21.4 -7.9 21.4 -7.3Q21.4 -6.8 21 -6.4Q20.6 -6 20 -6Q19.5 -6 19.1 -6.4Q18.8 -6.8 18.8 -7.3ZM20.1 -13.3Q18.7 -13.3 18 -11.8Q17.3 -10.3 17.3 -7.3Q17.3 -4.2 18 -2.8Q18.7 -1.3 20.1 -1.3Q21.4 -1.3 22.1 -2.8Q22.8 -4.2 22.8 -7.3Q22.8 -10.3 22.1 -11.8Q21.4 -13.3 20.1 -13.3ZM20.1 -14.8Q22.4 -14.8 23.6 -12.9Q24.8 -11 24.8 -7.3Q24.8 -3.5 23.6 -1.6Q22.4 0.3 20.1 0.3Q17.7 0.3 16.5 -1.6Q15.3 -3.5 15.3 -7.3Q15.3 -11 16.5 -12.9Q17.7 -14.8 20.1 -14.8Z M30.7 -1.7H33.8V-12.8L30.5 -12.1V-13.9L33.8 -14.6H35.7V-1.7H38.8V0H30.7Z M49.6 -15.2V2.6H45.5V1.2H47.8V-13.8H45.5V-15.2Z" transform="translate(34 43)" fill="#00f0ff" opacity=".9"/>
<g filter="url(#glow)"><use xlink:href="#tt" x="118" y="51" fill="#ff2bd6" opacity=".9">
 <animateTransform attributeName="transform" type="translate" values="2.5 0;2.5 0;-3 1;2.5 0;2.5 0" keyTimes="0;.6;.62;.64;1" dur="4.5s" calcMode="discrete" repeatCount="indefinite"/></use>
 <use xlink:href="#tt" x="118" y="51" fill="#00f0ff" opacity=".9">
 <animateTransform attributeName="transform" type="translate" values="-2 0;-2 0;3 -1;-2 0;-2 0" keyTimes="0;.6;.62;.64;1" dur="4.5s" calcMode="discrete" repeatCount="indefinite"/></use></g>
<use xlink:href="#tt" x="118" y="51" fill="#ffffff"/>
<path d="M1.4 -10.2H7V-9H4.9V-1.2H7V0H1.4V-1.2H3.5V-9H1.4Z M13.4 -1.1Q15.2 -1.1 15.8 -2Q16.5 -2.9 16.5 -5.1Q16.5 -7.4 15.8 -8.2Q15.2 -9.1 13.4 -9.1H12.8V-1.1ZM13.4 -10.2Q15.8 -10.2 16.9 -9Q18 -7.7 18 -5.1Q18 -2.5 16.9 -1.2Q15.8 0 13.4 0H11.4V-10.2Z M22.2 -10.2H28.3V-9H23.6V-6H28.1V-4.9H23.6V-1.2H28.4V0H22.2Z M32.2 -10.2H34L37.4 -1.8V-10.2H38.8V0H37L33.6 -8.4V0H32.2Z M42 -10.2H49.8V-9H46.6V0H45.2V-9H42Z M53.5 -10.2H59.2V-9H57V-1.2H59.2V0H53.5V-1.2H55.7V-9H53.5Z M62.9 -10.2H70.7V-9H67.5V0H66.1V-9H62.9Z M73.3 -10.2H74.7L77.2 -5.7L79.7 -10.2H81.2L77.9 -4.6V0H76.5V-4.6Z M86.8 -7.3H88.5V-5.2H86.8ZM86.8 -2.1H88.5V0H86.8Z M105.8 -10.2H107.1V-1.2H112.1V0H105.8Z M120.9 -5.1Q120.9 -7.3 120.4 -8.3Q120 -9.3 118.9 -9.3Q117.9 -9.3 117.4 -8.3Q117 -7.3 117 -5.1Q117 -2.9 117.4 -1.9Q117.9 -0.9 118.9 -0.9Q120 -0.9 120.4 -1.9Q120.9 -2.8 120.9 -5.1ZM122.3 -5.1Q122.3 -2.4 121.5 -1.1Q120.7 0.2 118.9 0.2Q117.2 0.2 116.4 -1.1Q115.5 -2.4 115.5 -5.1Q115.5 -7.8 116.4 -9.1Q117.2 -10.4 118.9 -10.4Q120.7 -10.4 121.5 -9.1Q122.3 -7.8 122.3 -5.1Z M129.4 -9 127.9 -3.8H130.8ZM128.5 -10.2H130.2L133.3 0H131.9L131.1 -2.7H127.6L126.8 0H125.4Z M138.6 -1.1Q140.3 -1.1 141 -2Q141.7 -2.9 141.7 -5.1Q141.7 -7.4 141 -8.2Q140.3 -9.1 138.6 -9.1H137.9V-1.1ZM138.6 -10.2Q140.9 -10.2 142 -9Q143.1 -7.7 143.1 -5.1Q143.1 -2.5 142 -1.2Q140.9 0 138.6 0H136.5V-10.2Z M147.3 -10.2H153.4V-9H148.7V-6H153.2V-4.9H148.7V-1.2H153.5V0H147.3Z M159.4 -1.1Q161.2 -1.1 161.8 -2Q162.5 -2.9 162.5 -5.1Q162.5 -7.4 161.8 -8.2Q161.2 -9.1 159.4 -9.1H158.8V-1.1ZM159.4 -10.2Q161.8 -10.2 162.9 -9Q164 -7.7 164 -5.1Q164 -2.5 162.9 -1.2Q161.8 0 159.4 0H157.4V-10.2Z" transform="translate(1005.14 32)" fill="#ff5fe5"/>
<rect x="1098" y="44" width="8" height="8" fill="#00f0ff"><animate attributeName="opacity" values=".15;1;.15" dur="1.8s" begin="0.0s" repeatCount="indefinite"/></rect><rect x="1110" y="44" width="8" height="8" fill="#00f0ff"><animate attributeName="opacity" values=".15;1;.15" dur="1.8s" begin="0.2s" repeatCount="indefinite"/></rect><rect x="1122" y="44" width="8" height="8" fill="#00f0ff"><animate attributeName="opacity" values=".15;1;.15" dur="1.8s" begin="0.4s" repeatCount="indefinite"/></rect><rect x="1134" y="44" width="8" height="8" fill="#00f0ff"><animate attributeName="opacity" values=".15;1;.15" dur="1.8s" begin="0.6s" repeatCount="indefinite"/></rect><rect x="1146" y="44" width="8" height="8" fill="#ff2bd6"><animate attributeName="opacity" values=".15;1;.15" dur="1.8s" begin="0.8s" repeatCount="indefinite"/></rect><rect x="1158" y="44" width="8" height="8" fill="#ff2bd6"><animate attributeName="opacity" values=".15;1;.15" dur="1.8s" begin="1.0s" repeatCount="indefinite"/></rect>
<rect x="0" y="68" width="1200" height="1.5" fill="url(#edge)" opacity=".8"/>
<rect x="-220" y="67" width="220" height="4" fill="url(#pl)"><animate attributeName="x" from="-220" to="1200" dur="3.6s" repeatCount="indefinite"/></rect>
</g>
<rect x=".8" y=".8" width="1198.4" height="70.4" rx="8" fill="none" stroke="url(#edge)" stroke-width="1.5" opacity=".75"/></svg>